<?xml version="1.0" encoding="UTF-8" standalone="no"?>
<!-- Created with Inkscape (http://www.inkscape.org/) -->

<svg
   xmlns:dc="http://purl.org/dc/elements/1.1/"
   xmlns:cc="http://creativecommons.org/ns#"
   xmlns:rdf="http://www.w3.org/1999/02/22-rdf-syntax-ns#"
   xmlns:svg="http://www.w3.org/2000/svg"
   xmlns="http://www.w3.org/2000/svg"
   xmlns:sodipodi="http://sodipodi.sourceforge.net/DTD/sodipodi-0.dtd"
   xmlns:inkscape="http://www.inkscape.org/namespaces/inkscape"
   width="363.14984"
   height="367.19046"
   id="svg3001"
   version="1.1"
   inkscape:version="0.48.4 r9939"
   sodipodi:docname="feathergui_white.svg"
   inkscape:export-filename="D:\Erik Documents\My Pictures\logos\feathergui_white.png"
   inkscape:export-xdpi="180"
   inkscape:export-ydpi="180">
  <defs
     id="defs3003" />
  <sodipodi:namedview
     id="base"
     pagecolor="#ffffff"
     bordercolor="#666666"
     borderopacity="1.0"
     inkscape:pageopacity="0.0"
     inkscape:pageshadow="2"
     inkscape:zoom="0.35"
     inkscape:cx="-270.94249"
     inkscape:cy="-318.81648"
     inkscape:document-units="px"
     inkscape:current-layer="layer1"
     showgrid="false"
     inkscape:window-width="2560"
     inkscape:window-height="1377"
     inkscape:window-x="1912"
     inkscape:window-y="-8"
     inkscape:window-maximized="1"
     fit-margin-top="0"
     fit-margin-left="0"
     fit-margin-right="0"
     fit-margin-bottom="0" />
  <metadata
     id="metadata3006">
    <rdf:RDF>
      <cc:Work
         rdf:about="">
        <dc:format>image/svg+xml</dc:format>
        <dc:type
           rdf:resource="http://purl.org/dc/dcmitype/StillImage" />
        <dc:title></dc:title>
      </cc:Work>
    </rdf:RDF>
  </metadata>
  <g
     inkscape:label="Layer 1"
     inkscape:groupmode="layer"
     id="layer1"
     transform="translate(-122.24545,-80.88974)">
    <path
       sodipodi:type="arc"
       style="color:#000000;fill:#800080;fill-opacity:1;fill-rule:nonzero;stroke:none;stroke-width:7.5999999;marker:none;visibility:visible;display:inline;overflow:visible;enable-background:accumulate"
       id="path3855"
       sodipodi:cx="153.79573"
       sodipodi:cy="159.10835"
       sodipodi:rx="203.2932"
       sodipodi:ry="203.2932"
       d="m 357.08893,159.10835 c 0,112.27574 -91.01747,203.2932 -203.2932,203.2932 -112.275732,0 -203.293197,-91.01746 -203.293197,-203.2932 0,-112.27573 91.017465,-203.293195 203.293197,-203.293195 112.27573,0 203.2932,91.017465 203.2932,203.293195 z"
       transform="matrix(0.8931677,0,0,0.90310559,166.45499,120.79332)" />
    <path
       id="path3065-7"
       style="fill:#ffffff;fill-opacity:1;stroke:none"
       d="m 203.21502,217.47319 c 62.93509,162.29167 258.25454,138.43401 258.25454,138.43401 -47.14286,13.57142 -93.82088,5.21972 -93.82088,5.21972 -102.49998,25.11414 -201.73075,-51.46438 -225.84942,-121.62654 0.42777,0.75066 9.4168,11.91251 39.26109,10.94572 -32.07086,0.3426 -43.63422,-22.24237 -44.46807,-34.45687 -2.12988,-31.19926 12.16472,-58.28305 52.10678,-70.70967 96.54575,-26.51158 95.41096,187.23211 188.41045,198.64321 0,0 -102.92805,2.2926 -173.89449,-126.44958 z"
       inkscape:connector-curvature="0"
       sodipodi:nodetypes="cccccsccc" />
  </g>
</svg>
