<?xml version="1.0" encoding="UTF-8" standalone="no"?><!-- Created with Inkscape (http://www.inkscape.org/) --><svg xmlns:rdf="http://www.w3.org/1999/02/22-rdf-syntax-ns#" xmlns="http://www.w3.org/2000/svg" version="1.1" xmlns:cc="http://creativecommons.org/ns#" xmlns:dc="http://purl.org/dc/elements/1.1/" viewBox="0 0 363.15 367.19"><metadata><rdf:RDF><cc:Work rdf:about=""><dc:format>image/svg+xml</dc:format><dc:type rdf:resource="http://purl.org/dc/dcmitype/StillImage"/><dc:title/></cc:Work></rdf:RDF></metadata><g transform="translate(-122.24545,-80.88974)"><path style="enable-background:accumulate;color:#000000;" d="m357.089,159.108c0,112.276-91.0175,203.293-203.293,203.293s-203.293-91.0175-203.293-203.293,91.0175-203.293,203.293-203.293,203.293,91.0175,203.293,203.293z" fill-rule="nonzero" transform="matrix(0.8931677,0,0,0.90310559,166.45499,120.79332)" fill="#800080"/><path fill="#FFF" d="m203.215,217.473c62.9351,162.292,258.255,138.434,258.255,138.434-47.1429,13.5714-93.8209,5.21972-93.8209,5.21972-102.5,25.1141-201.731-51.4644-225.849-121.627,0.42777,0.75066,9.4168,11.9125,39.2611,10.9457-32.0709,0.3426-43.6342-22.2424-44.4681-34.4569-2.12988-31.1993,12.1647-58.283,52.1068-70.7097,96.5458-26.5116,95.411,187.232,188.41,198.643,0,0-102.928,2.2926-173.894-126.45z"/></g></svg>