<?xml version="1.0" encoding="UTF-8" standalone="no"?><svg xmlns:rdf="http://www.w3.org/1999/02/22-rdf-syntax-ns#" xmlns="http://www.w3.org/2000/svg" version="1.1" xmlns:cc="http://creativecommons.org/ns#" xmlns:dc="http://purl.org/dc/elements/1.1/" viewBox="0 0 654.75 637.625"><metadata><rdf:RDF><cc:Work rdf:about=""><dc:format>image/svg+xml</dc:format><dc:type rdf:resource="http://purl.org/dc/dcmitype/StillImage"/><dc:title/></cc:Work></rdf:RDF></metadata><g transform="translate(31.807105 -170.36605)" fill="#fff"><path d="m218.531,135.094c-90.6794,52.8764-151.625,151.18-151.625,263.719,0,51.8931,12.9578,100.75,35.8125,143.531,12.29,15.7167,34.7526,19.8058,51.9062,8.84375,16.5144-10.5536,22.4512-31.4281,14.75-48.8125-0.009-0.0213-0.0218-0.0413-0.0312-0.0625-0.74533-1.41546-1.4941-2.82211-2.21875-4.25-0.19417-0.32381-0.38912-0.64854-0.59375-0.96875l0.0937-0.0625c-21.7353-43.2129-34-92.0176-34-143.688,0-84.3407,32.6114-161.059,85.9062-218.25zm-15.2812,418.812c-6.11684,11.9591-15.3953,22.5258-27.5312,30.2812-11.3037,7.2236-23.7488,11.1588-36.25,12.0938,55.9562,65.8255,139.334,107.594,232.5,107.594,52.6412,0,102.186-13.3391,145.406-36.8125-20.8454,4.2655-42.4248,6.5-64.5312,6.5-100.917,0-190.9-46.7074-249.594-119.656z" transform="translate(-98.713355 104.11605)"/><path d="m416.594,66.25c-52.6412,0-102.186,13.339-145.406,36.8125,20.8454-4.2656,42.4248-6.5,64.5312-6.5,102.202,0,193.245,47.8852,251.875,122.438,5.97969-11.2578,14.7753-21.2036,26.1875-28.6875,11.9341-7.82617,25.2382-11.9425,38.5312-12.6875-55.9496-68.0154-140.772-111.375-235.719-111.375zm240.656,150.406c-7.54487-0.10356-15.184,1.95694-21.9688,6.40625-15.4758,10.1488-21.4081,29.3874-15.375,46.0625,23.005,44.1856,36.0312,94.3952,36.0312,147.656,0,84.3407-32.6114,161.059-85.9062,218.25,90.6794-52.8764,151.625-151.18,151.625-263.719,0-49.8592-11.9786-96.9102-33.1875-138.469-7.49055-10.3489-19.2161-16.0228-31.2188-16.1875z" transform="translate(-98.713355 104.11605)"/></g></svg>