<?xml version="1.0" encoding="UTF-8" standalone="no"?><svg xmlns:rdf="http://www.w3.org/1999/02/22-rdf-syntax-ns#" xmlns="http://www.w3.org/2000/svg" version="1.1" xmlns:cc="http://creativecommons.org/ns#" xmlns:dc="http://purl.org/dc/elements/1.1/" viewBox="0 0 1703.92 117.36"><metadata><rdf:RDF><cc:Work rdf:about=""><dc:format>image/svg+xml</dc:format><dc:type rdf:resource="http://purl.org/dc/dcmitype/StillImage"/><dc:title/></cc:Work></rdf:RDF></metadata><g transform="translate(374.19623 -277.16394)" fill="#fff"><path d="m-281.748,361.833c-0.00011,4.22464-0.81603,8.18484-2.44776,11.8806-1.63193,3.69581-3.86362,6.93605-6.69507,9.7207-2.83163,2.78468-6.14364,4.96876-9.93603,6.55225-3.79256,1.5835-7.84798,2.37524-12.1663,2.37524h-61.2026v-115.198h54.8657c4.03118,0.00012,7.8471,0.74352,11.4478,2.23023,3.6005,1.48692,6.74479,3.52672,9.43286,6.11938,2.6879,2.59288,4.82364,5.64121,6.40723,9.14502,1.5834,3.504,2.37514,7.27157,2.37524,11.3027-0.0001,2.01571-0.28794,4.2474-0.86352,6.69507-0.57578,2.44783-1.55942,4.87215-2.95093,7.27295-1.39169,2.40095-3.19199,4.68098-5.40088,6.84009-2.20907,2.15924-4.89706,3.95953-8.06397,5.40088,4.41496,1.05474,8.23087,2.66241,11.4478,4.823,3.2167,2.16069,5.83291,4.60918,7.84863,7.34546,2.01553,2.73637,3.50307,5.64042,4.46265,8.71215,0.95937,3.07182,1.4391,5.9993,1.43921,8.78247zm-12.5244-55.582c-0.00009-3.45694-0.67245-6.69717-2.01709-9.7207-1.34481-3.02334-3.16927-5.68715-5.47339-7.99146-2.30428-2.30409-5.01643-4.10438-8.13647-5.40087-3.12019-1.29628-6.4073-1.94447-9.86133-1.94458h-49.9702v50.4009h49.9702c3.55071,0.00007,6.86199-0.6723,9.93384-2.01709,3.0717-1.34466,5.75968-3.16839,8.06396-5.47119,2.30412-2.30266,4.12858-4.99065,5.47339-8.06396,1.34464-3.07316,2.017-6.33683,2.01709-9.79102zm7.91895,55.582c-0.0001-3.64742-0.6959-7.07882-2.08741-10.2942-1.39169-3.21528-3.35971-6.02339-5.90405-8.42431-2.54452-2.40083-5.54452-4.29707-9-5.68872-3.45564-1.39155-7.24739-2.08735-11.3752-2.0874h-55.0107v52.9892h56.5928c3.64738,0.00001,7.10295-0.69579,10.3667-2.0874,3.26358-1.39159,6.12003-3.31127,8.56933-5.75903,2.44913-2.44774,4.36954-5.25584,5.76123-8.42432,1.39151-3.16843,2.08731-6.57639,2.08741-10.2239z"/><path d="m-114.603,277.164v68.1108c-0.00011,6.81449-1.27233,13.1983-3.81665,19.1514-2.54454,5.95314-6.02501,11.1614-10.4414,15.6248-4.4166,4.46339-9.60067,7.99146-15.5522,10.5842-5.95173,2.59277-12.3831,3.88916-19.2942,3.88916-6.91118,0-13.3667-1.29639-19.3667-3.88916-6.00003-2.59277-11.2324-6.0974-15.6973-10.5139-4.46487-4.41649-7.9695-9.60057-10.5139-15.5522-2.54444-5.95163-3.81666-12.3347-3.81665-19.1492v-68.2559h4.31983v68.8315c-0.00002,6.1436,1.17625,11.9034,3.5288,17.2793,2.35252,5.376,5.59275,10.0796,9.72071,14.1108,4.12789,4.03126,8.90401,7.22315,14.3284,9.57568,5.42426,2.35255,11.2565,3.52881,17.4968,3.52881,6.14349,0,11.9274-1.15209,17.3518-3.4563,5.42423-2.30419,10.1762-5.47191,14.2559-9.50317,4.07949-4.03123,7.29555-8.73484,9.64819-14.1108,2.35244-5.37594,3.52871-11.0888,3.52881-17.1387v-69.1172z"/><path d="m-23.6025,392.362h-17.855v-4.03418h6.76758v-107.134h-6.9126v-4.02979h18v4.02979h-6.62256v107.134h6.62256z"/><path d="m134.71,392.362h-85.2495v-115.198h4.46484v111.164h80.7847z"/><path d="m295.715,334.618c-0.00011,7.9688-1.536,15.4571-4.60766,22.4648-3.07188,7.00784-7.24815,13.128-12.5288,18.3604-5.28085,5.23243-11.4727,9.36036-18.5757,12.3838-7.10309,3.02344-14.6873,4.53515-22.7527,4.53515h-41.0405v-115.198h41.1856c8.06537,0.00012,15.6254,1.51183,22.6802,4.53516,7.05461,3.02354,13.2223,7.1273,18.5032,12.3113,5.28066,5.18417,9.45693,11.2801,12.5288,18.2878,3.07166,7.00788,4.60755,14.4478,4.60766,22.3198zm-4.75049,0c-0.0001-7.10443-1.39243-13.8962-4.177-20.3752-2.78476-6.47892-6.55307-12.1669-11.3049-17.064-4.75204-4.89687-10.3675-8.78529-16.8464-11.6653-6.47908-2.87977-13.3675-4.31971-20.6653-4.31982h-37.4414v107.134h37.4414c7.39154,0.00001,14.3034-1.46337,20.7356-4.39013,6.43205-2.92675,12.0482-6.83861,16.8486-11.7356,4.8002-4.89695,8.56851-10.5849,11.3049-17.064,2.73623-6.47896,4.10439-13.319,4.10449-20.5203z"/><path d="m559.939,361.833c-0.00011,4.22464-0.81603,8.18484-2.44776,11.8806-1.63193,3.69581-3.86362,6.93605-6.69507,9.7207-2.83163,2.78468-6.14364,4.96876-9.93603,6.55225-3.79256,1.5835-7.84798,2.37524-12.1663,2.37524h-61.2026v-115.198h54.8657c4.03118,0.00012,7.8471,0.74352,11.4478,2.23023,3.6005,1.48692,6.74479,3.52672,9.43286,6.11938,2.6879,2.59288,4.82364,5.64121,6.40723,9.14502,1.5834,3.504,2.37514,7.27157,2.37524,11.3027-0.0001,2.01571-0.28794,4.2474-0.86352,6.69507-0.57578,2.44783-1.55942,4.87215-2.95093,7.27295-1.39169,2.40095-3.19199,4.68098-5.40088,6.84009-2.20907,2.15924-4.89706,3.95953-8.06397,5.40088,4.41496,1.05474,8.23087,2.66241,11.4478,4.823,3.2167,2.16069,5.83291,4.60918,7.84863,7.34546,2.01553,2.73637,3.50307,5.64042,4.46265,8.71215,0.95937,3.07182,1.4391,5.9993,1.43921,8.78247zm-12.5244-55.582c-0.00009-3.45694-0.67245-6.69717-2.01709-9.7207-1.34481-3.02334-3.16927-5.68715-5.47339-7.99146-2.30428-2.30409-5.01643-4.10438-8.13647-5.40087-3.12019-1.29628-6.4073-1.94447-9.86133-1.94458h-49.9702v50.4009h49.9702c3.55071,0.00007,6.86199-0.6723,9.93384-2.01709,3.0717-1.34466,5.75968-3.16839,8.06396-5.47119,2.30412-2.30266,4.12858-4.99065,5.47339-8.06396,1.34464-3.07316,2.017-6.33683,2.01709-9.79102zm7.91895,55.582c-0.0001-3.64742-0.6959-7.07882-2.08741-10.2942-1.39169-3.21528-3.35971-6.02339-5.90405-8.42431-2.54452-2.40083-5.54452-4.29707-9-5.68872-3.45564-1.39155-7.24739-2.08735-11.3752-2.0874h-55.0107v52.9892h56.5928c3.64738,0.00001,7.10295-0.69579,10.3667-2.0874,3.26358-1.39159,6.12003-3.31127,8.56933-5.75903,2.44913-2.44774,4.36954-5.25584,5.76123-8.42432,1.39151-3.16843,2.08731-6.57639,2.08741-10.2239z"/><path d="m715.276,392.507h-86.6909v-115.343h86.6909v4.02979h-82.2261v50.8315h73.4414v4.03418h-73.4414v52.4136h82.2261z"/><path d="m869.338,281.194h-46.2261v111.168h-4.31983v-111.168h-46.2217v-4.02979h96.7676z"/><path d="m1018.9,281.194h-46.226v111.168h-4.31983v-111.168h-46.2217v-4.02979h96.7675z"/><path d="m1168.46,392.507h-86.6909v-115.343h86.6909v4.02979h-82.226v50.8315h73.4414v4.03418h-73.4414v52.4136h82.226z"/><path d="m1329.72,392.362h-5.9019l-33.6972-49.5352h-49.9703v49.6802h-4.3198v-115.343h56.4478c4.4179,0.00012,8.6908,0.88781,12.8188,2.66309,4.1279,1.7755,7.7519,4.15147,10.8721,7.12793,3.12,2.97666,5.6161,6.43296,7.4883,10.3689,1.8719,3.93613,2.808,8.11166,2.8081,12.5266-0.0001,3.16708-0.6483,6.43074-1.9446,9.79102-1.2965,3.36042-3.1927,6.5047-5.6887,9.43286-2.4962,2.92828-5.6639,5.56866-9.5032,7.92114-3.8394,2.3526-8.2552,4.10455-13.2473,5.25586zm-8.064-82.5117c-0.0001-3.84073-0.7918-7.51309-2.3752-11.0171-1.5836-3.50381-3.7435-6.55141-6.4798-9.14282-2.7364-2.5912-5.9048-4.65516-9.5053-6.19189-3.6007-1.53651-7.3683-2.30482-11.3028-2.30493h-51.8423v57.4585h48.9639c4.5117,0.00006,8.759-0.76825,12.742-2.30493,3.9828-1.53656,7.4383-3.60126,10.3667-6.19409,2.9281-2.59271,5.2323-5.64105,6.9126-9.14502,1.68-3.50383,2.5201-7.22307,2.5202-11.1577z"/></g></svg>