<?xml version="1.0" encoding="UTF-8" standalone="no"?><!-- Created with Inkscape (http://www.inkscape.org/) --><svg xmlns:rdf="http://www.w3.org/1999/02/22-rdf-syntax-ns#" xmlns="http://www.w3.org/2000/svg" version="1.1" xmlns:cc="http://creativecommons.org/ns#" xmlns:dc="http://purl.org/dc/elements/1.1/" viewBox="0 0 40 40"><metadata><rdf:RDF><cc:Work rdf:about=""><dc:format>image/svg+xml</dc:format><dc:type rdf:resource="http://purl.org/dc/dcmitype/StillImage"/><dc:title/></cc:Work></rdf:RDF></metadata><g transform="translate(-122.24545,-72.2474)"><path opacity="0.3" style="enable-background:accumulate;color:#000000;" d="m142.751,77.3183c-8.56396,0-15.5054,7.01958-15.5054,15.6788,0,8.65925,6.9414,15.6788,15.5054,15.6788,5.74968,0,10.7701-3.16465,13.4478-7.86477-4.02043,1.15238-7.99554,0.44034-7.99554,0.44034-8.75345,2.14474-17.2272-4.3949-19.287-10.3867,0.0365,0.06411,0.80324,1.01662,3.35193,0.934058-2.73884,0.02926-3.7264-1.9005-3.79761-2.94362-0.18189-2.6644,1.04042-4.97812,4.45145-6.03935,8.24497-2.26408,8.1477,15.9907,16.0898,16.9652,0,0-8.79102,0.19682-14.8515-10.7977,5.35074,13.798,21.894,11.8428,22.0411,11.8252,1.30949-2.29983,2.05759-4.9671,2.05759-7.81139,0-8.65925-6.94407-15.6788-15.508-15.6788z" fill-rule="nonzero" fill="#483737"/></g></svg>