<?xml version="1.0" encoding="UTF-8" standalone="no"?><!-- Created with Inkscape (http://www.inkscape.org/) --><svg xmlns:rdf="http://www.w3.org/1999/02/22-rdf-syntax-ns#" xmlns="http://www.w3.org/2000/svg" version="1.1" xmlns:cc="http://creativecommons.org/ns#" xmlns:dc="http://purl.org/dc/elements/1.1/" viewBox="0 0 337.39 315.665"><metadata><rdf:RDF><cc:Work rdf:about=""><dc:format>image/svg+xml</dc:format><dc:type rdf:resource="http://purl.org/dc/dcmitype/StillImage"/><dc:title/></cc:Work></rdf:RDF></metadata><g transform="translate(-62.857146,-38.076461)"><path opacity="0.6" style="enable-background:accumulate;color:#000000;" d="m540,220.934c0,100.989-81.8679,182.857-182.857,182.857s-182.857-81.8679-182.857-182.857,81.8679-182.857,182.857-182.857c100.989-0.0005,182.857,81.867,182.857,182.857z" fill-rule="nonzero" transform="matrix(0.57603087,0,0,0.57603087,26.649489,16.143244)" fill="#008000"/><path opacity="0.6" style="enable-background:accumulate;color:#000000;" d="m540,220.934c0,100.989-81.8679,182.857-182.857,182.857s-182.857-81.8679-182.857-182.857,81.8679-182.857,182.857-182.857c100.989-0.0005,182.857,81.867,182.857,182.857z" fill-rule="nonzero" transform="matrix(0.57603087,0,0,0.57603087,89.18999,121.14544)" fill="#c83737"/><path opacity="0.6" style="enable-background:accumulate;color:#000000;" d="m540,220.934c0,100.989-81.8679,182.857-182.857,182.857s-182.857-81.8679-182.857-182.857,81.8679-182.857,182.857-182.857c100.989-0.0005,182.857,81.867,182.857,182.857z" fill-rule="nonzero" transform="matrix(0.57603087,0,0,0.57603087,-37.536801,120.22815)" fill="#008080"/><text style="letter-spacing:0px;word-spacing:0px;" font-weight="normal" xml:space="preserve" font-size="23.04123497px" font-style="normal" y="88.684891" x="207.27632" font-family="Sans" line-height="125%" fill="#000000"><tspan font-weight="bold" font-size="41.47422409000000000px" font-style="normal" font-stretch="normal" font-variant="normal" y="88.684891" x="207.27632" font-family="Open Sans" fill="#ffffff">Qt</tspan></text><text style="letter-spacing:0px;word-spacing:0px;" font-weight="bold" xml:space="preserve" font-size="27.64948082px" font-stretch="normal" line-height="125%" font-variant="normal" y="261.49417" x="72.492264" font-family="Segoe UI" font-style="normal" fill="#ffffff"><tspan font-weight="bold" font-style="normal" font-stretch="normal" font-variant="normal" y="261.49417" x="72.492264" font-family="Open Sans">Nuklear</tspan></text><text style="letter-spacing:0px;word-spacing:0px;" font-weight="bold" xml:space="preserve" font-size="27.64948082px" font-stretch="normal" line-height="125%" font-variant="normal" y="259.21542" x="292.39877" font-family="Segoe UI" font-style="normal" fill="#ffffff"><tspan font-weight="bold" font-size="32.25772858px" font-style="normal" font-stretch="normal" font-variant="normal" y="259.21542" x="292.39877" font-family="Open Sans">HTML</tspan></text><path style="enable-background:accumulate;color:#000000;" d="m357.089,159.108c0,112.276-91.0175,203.293-203.293,203.293s-203.293-91.0175-203.293-203.293,91.0175-203.293,203.293-203.293,203.293,91.0175,203.293,203.293z" fill-rule="nonzero" transform="matrix(0.16250666,0,0,0.16431482,207.17624,188.61974)" fill="#800080"/><path fill="#FFF" d="m213.865,206.21c11.4507,29.528,46.9879,25.1873,46.9879,25.1873-8.57737,2.46924-17.0702,0.94969-17.0702,0.94969-18.6493,4.56937-36.7037-9.36364-41.092-22.1292,0.0778,0.13658,1.71333,2.16742,7.14332,1.99151-5.8351,0.0624-7.93899-4.04686-8.09071-6.26922-0.38751-5.67653,2.21331-10.6043,9.48053-12.8652,17.5659-4.82364,17.3595,34.0658,34.2802,36.142,0,0-18.7272,0.41712-31.6391-23.0068z"/><text style="letter-spacing:0px;word-spacing:0px;" font-weight="bold" xml:space="preserve" font-size="18.43298721px" font-style="normal" y="285.35828" x="77.783875" font-family="Sans" line-height="125%" fill="#ffffff"><tspan font-weight="normal" font-style="normal" font-stretch="normal" font-variant="normal" y="285.35828" x="77.783875" font-family="Open Sans">Lightweight</tspan></text><text style="letter-spacing:0px;word-spacing:0px;" font-weight="bold" xml:space="preserve" font-size="18.43298721px" font-style="normal" y="282.06668" x="282.57178" font-family="Sans" line-height="125%" fill="#000000"><tspan x="282.57178" y="282.06668"/></text><text style="letter-spacing:0px;word-spacing:0px;" font-weight="bold" xml:space="preserve" font-size="18.43298721px" font-style="normal" y="280.54819" x="287.35757" font-family="Sans" line-height="125%" fill="#ffffff"><tspan font-weight="normal" font-style="normal" font-stretch="normal" font-variant="normal" y="280.54819" x="287.35757" font-family="Open Sans">Easy To Use</tspan></text><text style="letter-spacing:0px;word-spacing:0px;" font-weight="bold" xml:space="preserve" font-size="18.43298721px" font-style="normal" y="115.96792" x="181.03157" font-family="Sans" line-height="125%" fill="#ffffff"><tspan font-weight="normal" font-style="normal" font-stretch="normal" font-variant="normal" y="115.96792" x="181.03157" font-family="Open Sans">Layout Editor</tspan></text></g></svg>