<svg height="637.625" width="654.75" xmlns="http://www.w3.org/2000/svg"><g fill="#fff" transform="translate(31.807105 -170.36605)"><path d="m218.53125 135.09375c-90.67936 52.8764-151.625 151.17955-151.625 263.71875 0 51.89309 12.957816 100.74978 35.8125 143.53125 12.28999 15.71666 34.75258 19.80575 51.90625 8.84375 16.51436-10.55355 22.4512-31.42808 14.75-48.8125-.009-.0213-.0218-.0413-.0312-.0625-.74533-1.41546-1.4941-2.82211-2.21875-4.25-.19417-.32381-.38912-.64854-.59375-.96875l.0937-.0625c-21.73533-43.21294-34-92.01764-34-143.6875 0-84.3407 32.61143-161.0587 85.90625-218.25zm-15.28125 418.8125c-6.11684 11.95907-15.39534 22.5258-27.53125 30.28125-11.3037 7.2236-23.74879 11.15885-36.25 12.09375 55.95623 65.82548 139.3344 107.59375 232.5 107.59375 52.64117 0 102.18618-13.3391 145.40625-36.8125-20.84544 4.2655-42.42479 6.5-64.53125 6.5-100.91684 0-190.90032-46.70736-249.59375-119.65625z" transform="translate(-98.713355 104.11605)"/><path d="m416.59375 66.25c-52.64117 0-102.18618 13.339-145.40625 36.8125 20.84543-4.2656 42.42479-6.5 64.53125-6.5 102.20218 0 193.24535 47.88525 251.875 122.4375 5.97969-11.25781 14.7753-21.20358 26.1875-28.6875 11.93409-7.82617 25.23824-11.94254 38.53125-12.6875-55.94961-68.01538-140.77172-111.375-235.71875-111.375zm240.65625 150.40625c-7.54487-.10356-15.18402 1.95694-21.96875 6.40625-15.47584 10.14879-21.40814 29.38743-15.375 46.0625 23.00498 44.18558 36.03125 94.39519 36.03125 147.65625 0 84.3407-32.61143 161.0588-85.90625 218.25 90.67937-52.8764 151.625-151.17955 151.625-263.71875 0-49.85925-11.97856-96.91024-33.1875-138.46875-7.49055-10.3489-19.21612-16.02275-31.21875-16.1875z" transform="translate(-98.713355 104.11605)"/></g></svg>