<svg height="117.36035" width="1703.9204" xmlns="http://www.w3.org/2000/svg"><g fill="#fff" transform="translate(374.19623 -277.16394)"><path d="m-281.74847 361.83337c-.00011 4.22464-.81603 8.18484-2.44776 11.88062-1.63193 3.69581-3.86362 6.93605-6.69507 9.7207-2.83163 2.78468-6.14364 4.96876-9.93603 6.55225-3.79256 1.5835-7.84798 2.37524-12.16626 2.37524h-61.20264v-115.19824h54.86572c4.03118.00012 7.8471.74352 11.44776 2.23023 3.6005 1.48692 6.74479 3.52672 9.43286 6.11938 2.6879 2.59288 4.82364 5.64121 6.40723 9.14502 1.5834 3.504 2.37514 7.27157 2.37524 11.30273-.0001 2.01571-.28794 4.2474-.86352 6.69507-.57578 2.44783-1.55942 4.87215-2.95093 7.27295-1.39169 2.40095-3.19199 4.68098-5.40088 6.84009-2.20907 2.15924-4.89706 3.95953-8.06397 5.40088 4.41496 1.05474 8.23087 2.66241 11.44776 4.823 3.2167 2.16069 5.83291 4.60918 7.84863 7.34546 2.01553 2.73637 3.50307 5.64042 4.46265 8.71215.95937 3.07182 1.4391 5.9993 1.43921 8.78247zm-12.52442-55.58203c-.00009-3.45694-.67245-6.69717-2.01709-9.7207-1.34481-3.02334-3.16927-5.68715-5.47339-7.99146-2.30428-2.30409-5.01643-4.10438-8.13647-5.40087-3.12019-1.29628-6.4073-1.94447-9.86133-1.94458h-49.97021v50.40087h49.97021c3.55071.00007 6.86199-.6723 9.93384-2.01709 3.0717-1.34466 5.75968-3.16839 8.06396-5.47119 2.30412-2.30266 4.12858-4.99065 5.47339-8.06396 1.34464-3.07316 2.017-6.33683 2.01709-9.79102zm7.91895 55.58203c-.0001-3.64742-.6959-7.07882-2.08741-10.29419-1.39169-3.21528-3.35971-6.02339-5.90405-8.42431-2.54452-2.40083-5.54452-4.29707-9-5.68872-3.45564-1.39155-7.24739-2.08735-11.37524-2.0874h-55.01074v52.98925h56.59277c3.64738.00001 7.10295-.69579 10.3667-2.0874 3.26358-1.39159 6.12003-3.31127 8.56933-5.75903 2.44913-2.44774 4.36954-5.25584 5.76123-8.42432 1.39151-3.16843 2.08731-6.57639 2.08741-10.22388z"/><path d="m-114.60345 277.16394v68.11084c-.00011 6.81449-1.27233 13.19828-3.81665 19.15137-2.54454 5.95314-6.02501 11.16139-10.44141 15.62475-4.4166 4.46339-9.60067 7.99146-15.55225 10.58423-5.95173 2.59277-12.38312 3.88916-19.29419 3.88916-6.91118 0-13.36674-1.29639-19.3667-3.88916-6.00003-2.59277-11.23245-6.0974-15.69726-10.51391-4.46487-4.41649-7.9695-9.60057-10.51392-15.55225-2.54444-5.95163-3.81666-12.33468-3.81665-19.14917v-68.25586h4.31983v68.83154c-.00002 6.1436 1.17625 11.90336 3.5288 17.2793 2.35252 5.376 5.59275 10.07961 9.72071 14.11084 4.12789 4.03126 8.90401 7.22315 14.32837 9.57568 5.42426 2.35255 11.25653 3.52881 17.49682 3.52881 6.14349 0 11.92742-1.15209 17.35181-3.4563 5.42423-2.30419 10.17618-5.47191 14.25586-9.50317 4.07949-4.03123 7.29555-8.73484 9.64819-14.11084 2.35244-5.37594 3.52871-11.08883 3.52881-17.13867v-69.11719z"/><path d="m-23.602478 392.36218h-17.85498v-4.03418h6.767578v-107.13427h-6.912598v-4.02979h18v4.02979h-6.622559v107.13427h6.622559z"/><path d="m134.70953 392.36218h-85.249508v-115.19824h4.464844v111.16406h80.784664z"/><path d="m295.71539 334.61804c-.00011 7.9688-1.536 15.45708-4.60766 22.46485-3.07188 7.00784-7.24815 13.12795-12.52881 18.36035-5.28085 5.23243-11.47274 9.36036-18.57569 12.38379-7.10309 3.02344-14.68731 4.53515-22.75268 4.53515h-41.04053v-115.19824h41.18555c8.06537.00012 15.62542 1.51183 22.68017 4.53516 7.05461 3.02354 13.22233 7.1273 18.50318 12.31128 5.28066 5.18417 9.45693 11.28011 12.52881 18.28784 3.07166 7.00788 4.60755 14.44782 4.60766 22.31982zm-4.75049 0c-.0001-7.10443-1.39243-13.89617-4.177-20.37524-2.78476-6.47892-6.55307-12.1669-11.30493-17.06397-4.75204-4.89687-10.36751-8.78529-16.84643-11.66528-6.47908-2.87977-13.3675-4.31971-20.66529-4.31982h-37.4414v107.13427h37.4414c7.39154.00001 14.3034-1.46337 20.7356-4.39013 6.43205-2.92675 12.04825-6.83861 16.84863-11.7356 4.8002-4.89695 8.56851-10.58493 11.30493-17.06396 2.73623-6.47896 4.10439-13.31905 4.10449-20.52027z"/><path d="m559.93903 361.83337c-.00011 4.22464-.81603 8.18484-2.44776 11.88062-1.63193 3.69581-3.86362 6.93605-6.69507 9.7207-2.83163 2.78468-6.14364 4.96876-9.93603 6.55225-3.79256 1.5835-7.84798 2.37524-12.16626 2.37524h-61.20264v-115.19824h54.86572c4.03118.00012 7.8471.74352 11.44776 2.23023 3.6005 1.48692 6.74479 3.52672 9.43286 6.11938 2.6879 2.59288 4.82364 5.64121 6.40723 9.14502 1.5834 3.504 2.37514 7.27157 2.37524 11.30273-.0001 2.01571-.28794 4.2474-.86352 6.69507-.57578 2.44783-1.55942 4.87215-2.95093 7.27295-1.39169 2.40095-3.19199 4.68098-5.40088 6.84009-2.20907 2.15924-4.89706 3.95953-8.06397 5.40088 4.41496 1.05474 8.23087 2.66241 11.44776 4.823 3.2167 2.16069 5.83291 4.60918 7.84863 7.34546 2.01553 2.73637 3.50307 5.64042 4.46265 8.71215.95937 3.07182 1.4391 5.9993 1.43921 8.78247zm-12.52442-55.58203c-.00009-3.45694-.67245-6.69717-2.01709-9.7207-1.34481-3.02334-3.16927-5.68715-5.47339-7.99146-2.30428-2.30409-5.01643-4.10438-8.13647-5.40087-3.12019-1.29628-6.4073-1.94447-9.86133-1.94458h-49.97021v50.40087h49.97021c3.55071.00007 6.86199-.6723 9.93384-2.01709 3.0717-1.34466 5.75968-3.16839 8.06396-5.47119 2.30412-2.30266 4.12858-4.99065 5.47339-8.06396 1.34464-3.07316 2.017-6.33683 2.01709-9.79102zm7.91895 55.58203c-.0001-3.64742-.6959-7.07882-2.08741-10.29419-1.39169-3.21528-3.35971-6.02339-5.90405-8.42431-2.54452-2.40083-5.54452-4.29707-9-5.68872-3.45564-1.39155-7.24739-2.08735-11.37524-2.0874h-55.01074v52.98925h56.59277c3.64738.00001 7.10295-.69579 10.3667-2.0874 3.26358-1.39159 6.12003-3.31127 8.56933-5.75903 2.44913-2.44774 4.36954-5.25584 5.76123-8.42432 1.39151-3.16843 2.08731-6.57639 2.08741-10.22388z"/><path d="m715.27594 392.5072h-86.69092v-115.34326h86.69092v4.02979h-82.22607v50.83154h73.4414v4.03418h-73.4414v52.41357h82.22607z"/><path d="m869.33844 281.19373h-46.22607v111.16845h-4.31983v-111.16845h-46.22168v-4.02979h96.76758z"/><path d="m1018.9009 281.19373h-46.22603v111.16845h-4.31983v-111.16845h-46.22168v-4.02979h96.76754z"/><path d="m1168.4634 392.5072h-86.6909v-115.34326h86.6909v4.02979h-82.226v50.83154h73.4414v4.03418h-73.4414v52.41357h82.226z"/><path d="m1329.7242 392.36218h-5.9019l-33.6972-49.53515h-49.9703v49.68017h-4.3198v-115.34326h56.4478c4.4179.00012 8.6908.88781 12.8188 2.66309 4.1279 1.7755 7.7519 4.15147 10.8721 7.12793 3.12 2.97666 5.6161 6.43296 7.4883 10.36889 1.8719 3.93613 2.808 8.11166 2.8081 12.52661-.0001 3.16708-.6483 6.43074-1.9446 9.79102-1.2965 3.36042-3.1927 6.5047-5.6887 9.43286-2.4962 2.92828-5.6639 5.56866-9.5032 7.92114-3.8394 2.3526-8.2552 4.10455-13.2473 5.25586zm-8.064-82.51172c-.0001-3.84073-.7918-7.51309-2.3752-11.01709-1.5836-3.50381-3.7435-6.55141-6.4798-9.14282-2.7364-2.5912-5.9048-4.65516-9.5053-6.19189-3.6007-1.53651-7.3683-2.30482-11.3028-2.30493h-51.8423v57.45849h48.9639c4.5117.00006 8.759-.76825 12.742-2.30493 3.9828-1.53656 7.4383-3.60126 10.3667-6.19409 2.9281-2.59271 5.2323-5.64105 6.9126-9.14502 1.68-3.50383 2.5201-7.22307 2.5202-11.15772z"/></g></svg>